<?xml version="1.0" encoding="UTF-8"?>
<!DOCTYPE svg PUBLIC "-//W3C//DTD SVG 1.1//EN" "http://www.w3.org/Graphics/SVG/1.1/DTD/svg11.dtd">
<!-- Creator: CorelDRAW 2020 (64-Bit) -->
<svg xmlns="http://www.w3.org/2000/svg" xml:space="preserve" width="210mm" height="297mm" version="1.1" style="shape-rendering:geometricPrecision; text-rendering:geometricPrecision; image-rendering:optimizeQuality; fill-rule:evenodd; clip-rule:evenodd"
viewBox="0 0 21000 29700"
 xmlns:xlink="http://www.w3.org/1999/xlink"
 xmlns:xodm="http://www.corel.com/coreldraw/odm/2003">
 <defs>
  <style type="text/css">
   <![CDATA[
    .fil1 {fill:none}
    .fil0 {fill:white}
    .fil2 {fill:white;fill-rule:nonzero}
   ]]>
  </style>
 </defs>
 <g id="Слой_x0020_1">
  <metadata id="CorelCorpID_0Corel-Layer"/>
  <g id="_3138376942064">
   <g>
    <rect class="fil0" transform="matrix(0.707107 0.707107 -0.707107 0.707107 12305.5 5750.63)" width="476.66" height="476.66"/>
    <rect class="fil0" transform="matrix(0.707107 0.707107 -0.707107 0.707107 14172.9 7436.28)" width="476.66" height="476.66"/>
    <rect class="fil0" transform="matrix(0.707107 0.707107 -0.707107 0.707107 16523.3 9500.02)" width="476.66" height="476.66"/>
    <rect class="fil0" transform="matrix(0.707107 0.707107 -0.707107 0.707107 18141.7 11072.1)" width="476.66" height="476.66"/>
    <rect class="fil0" transform="matrix(1.39016 1.39016 -1.39016 1.39016 12243.6 6654.3)" width="476.66" height="476.66"/>
    <rect class="fil0" transform="matrix(1.7306 1.7306 -1.7306 1.7306 14337.7 8369.97)" width="476.66" height="476.66"/>
    <rect class="fil0" transform="matrix(1.76961 1.76961 -1.76961 1.76961 16530.8 10297.7)" width="476.66" height="476.66"/>
    <rect class="fil0" transform="matrix(1.76961 1.76961 -1.76961 1.76961 18370.9 12137.8)" width="476.66" height="476.66"/>
    <rect class="fil0" transform="matrix(1.76597 1.76597 -1.76597 1.76597 12067.7 8140.37)" width="476.66" height="476.66"/>
    <rect class="fil0" transform="matrix(1.94399 1.94399 -1.94399 1.94399 14379.4 10265.9)" width="476.66" height="476.66"/>
    <rect class="fil0" transform="matrix(1.94399 1.94399 -1.94399 1.94399 16584.9 12442.8)" width="476.66" height="476.66"/>
    <rect class="fil0" transform="matrix(2.45682 2.45682 -2.45682 2.45682 11870.5 9679.8)" width="476.66" height="476.66"/>
    <rect class="fil0" transform="matrix(2.45682 2.45682 -2.45682 2.45682 14237.7 12051.5)" width="476.66" height="476.66"/>
    <path class="fil1" d="M14233.99 12035.63l24.31 24.31m2315.43 2374.77c337.98,559.26 266.19,1301.57 -215.34,1783.1l-5354.45 5354.45c-565.89,565.89 -1491.89,565.89 -2057.78,0l-5354.45 -5354.45c-565.89,-565.89 -565.89,-1491.89 0,-2057.78l5354.45 -5354.45c450.82,-450.82 1130.18,-542.48 1673.94,-275.02"/>
    <polyline class="fil1" points="10620.1,8530.56 9503.99,9646.67 15421.91,15586.53 "/>
    <line class="fil1" x1="16573.73" y1="14434.71" x2="15421.91" y2= "15586.53" />
    <rect class="fil1" x="8329.16" y="12698.5" width="899.05" height="5412.95"/>
    <polygon class="fil1" points="10592.81,12698.5 11491.86,12698.5 12323.37,12698.5 12323.37,13722.1 11491.86,13722.1 11491.86,18111.45 10592.81,18111.45 10592.81,13722.1 9761.29,13722.1 9761.29,12698.5 "/>
    <line class="fil1" x1="14254.56" y1="14376.76" x2="13649.32" y2= "14982" />
    <line class="fil1" x1="13557.95" y1="13715.67" x2="12970.47" y2= "14303.15" />
    <line class="fil1" x1="12970.47" y1="14303.15" x2="13649.32" y2= "14982" />
    <line class="fil1" x1="11862.49" y1="12013.96" x2="11293.58" y2= "12582.87" />
    <line class="fil1" x1="11190.7" y1="11339.64" x2="10620.52" y2= "11909.82" />
    <line class="fil1" x1="10620.53" y1="11909.82" x2="11293.58" y2= "12582.87" />
    <path class="fil0" d="M8329.16 18111.45l0 -5412.95 899.05 0 0 5412.95 -899.05 0zm1432.13 -4389.35l0 -1023.6 831.52 0 899.05 0 831.51 0 0 1023.6 -831.51 0 0 4389.35 -899.05 0 0 -4389.35 -831.52 0zm1532.29 -1139.23l-673.06 -673.05 568.92 -568.92 1.26 -1.26 -489.12 -490.94 -1197.59 -1202.03 1116.11 -1116.11c-543.76,-267.46 -1223.12,-175.8 -1673.94,275.02l-5354.45 5354.45c-565.89,565.89 -565.89,1491.89 0,2057.78l5354.45 5354.45c565.89,565.89 1491.89,565.89 2057.78,0l5354.45 -5354.45c481.53,-481.53 553.32,-1223.84 215.34,-1783.1l-1151.82 1151.82 -1186.36 -1190.76 -586.23 586.23 -678.85 -678.85 587.49 -587.49 -488.11 -489.91 -3.2 -3.22 -1196.17 -1200.59 -7.99 -7.98 -568.91 568.91z"/>
   </g>
   <path class="fil2" d="M6093.05 24806.45l-434.88 0 -99.86 -530.64c-7.16,-37.48 -13.53,-78.96 -19.5,-125.01 -5.56,-45.77 -11.14,-95.83 -15.51,-149.9 -11.14,52.06 -32.23,116.71 -64.06,194.52 -7.16,16.02 -12.34,28.04 -15.52,36.05l-231.55 574.98 -310.35 0 -231.56 -574.98c-3.18,-8.01 -7.96,-20.03 -14.33,-36.05 -32.61,-77.81 -53.71,-142.17 -64.04,-193.66 -4.39,46.34 -9.95,92.4 -16.32,137.88 -5.97,45.48 -13.53,90.97 -21.89,136.17l-100.25 530.64 -432.49 0 263.39 -1227.2 460.33 0 257.43 632.76c1.59,4.58 4.77,11.73 9.54,22.03 23.88,56.35 39,104.7 45.36,145.03 3.18,-22.02 8.76,-46.05 17.51,-72.66 8.36,-26.6 20.29,-58.64 35.01,-96.11l259.81 -631.05 461.53 0 262.2 1227.2zm701.84 -458.27l462.73 0 -173.87 -405.06c-5.16,-12.3 -12.73,-32.04 -21.88,-59.5 -9.54,-27.47 -21.49,-62.65 -36.21,-105.56 -9.94,30.03 -19.89,58.93 -29.83,86.39 -9.56,27.17 -19.5,53.49 -29.44,78.67l-171.5 405.06zm-652.1 458.27l589.25 -1227.2 582.88 0 589.64 1227.2 -462.72 0 -86.35 -219.7 -660.85 0 -88.74 219.7 -463.11 0zm2528.48 -942.29l2.38 3.44c27.05,36.9 45.35,69.22 54.91,97.26 8.36,-25.75 25.86,-56.07 52.12,-91.26 3.18,-4 5.57,-7.15 7.16,-9.44l204.9 -284.91 551.45 0 -569.75 590.14 630.24 637.06 -527.99 0 -288.85 -363.87c-13.13,-16.02 -25.06,-32.9 -35.01,-49.78 -9.94,-17.16 -18.3,-34.32 -24.27,-51.49 -7.16,19.46 -15.52,37.48 -24.67,54.36 -9.16,16.87 -20.3,32.32 -32.62,46.91l-291.24 363.87 -527.58 0 632.21 -643.64 -572.13 -583.56 553.83 0 204.91 284.91zm1093.35 942.29l0 -1227.2 470.28 0 0 1227.2 -470.28 0zm2802.21 0l-434.88 0 -99.87 -530.64c-7.16,-37.48 -13.53,-78.96 -19.5,-125.01 -5.56,-45.77 -11.14,-95.83 -15.5,-149.9 -11.15,52.06 -32.23,116.71 -64.07,194.52 -7.16,16.02 -12.33,28.04 -15.52,36.05l-231.55 574.98 -310.34 0 -231.57 -574.98c-3.18,-8.01 -7.95,-20.03 -14.32,-36.05 -32.62,-77.81 -53.72,-142.17 -64.05,-193.66 -4.38,46.34 -9.94,92.4 -16.31,137.88 -5.97,45.48 -13.54,90.97 -21.9,136.17l-100.25 530.64 -432.49 0 263.39 -1227.2 460.33 0 257.44 632.76c1.58,4.58 4.77,11.73 9.54,22.03 23.88,56.35 39,104.7 45.35,145.03 3.19,-22.02 8.77,-46.05 17.51,-72.66 8.36,-26.6 20.3,-58.64 35.01,-96.11l259.81 -631.05 461.53 0 262.21 1227.2zm240.71 -1227.2l463.12 0 0 597.01c0,87.53 3.18,150.75 9.15,188.8 6.37,38.33 16.72,70.37 31.83,96.11 17.52,31.18 48.93,55.21 93.11,71.81 44.16,16.3 98.26,24.6 161.92,24.6 63.66,0 117.38,-8.3 161.55,-24.6 43.76,-16.6 75.19,-40.63 93.49,-71.81 15.12,-25.74 25.47,-57.78 31.83,-96.11 5.98,-38.05 9.15,-101.27 9.15,-188.8l0 -83.82 0 -513.19 463.13 0 0 648.78c0,134.74 -11.14,234 -33.83,298.08 -22.67,63.79 -60.47,118.43 -114.19,163.91 -58.08,49.49 -138.06,86.97 -239.91,111.85 -101.85,24.89 -225.19,37.19 -370.41,37.19 -146.42,0 -269.76,-12.3 -371.22,-37.19 -101.45,-24.88 -181.83,-62.36 -240.72,-111.85 -52.9,-45.48 -90.71,-100.12 -113.78,-163.91 -22.69,-64.08 -34.22,-163.34 -34.22,-298.08l0 -127.29 0 -521.49zm3828.71 1227.2l-434.88 0 -99.86 -530.64c-7.16,-37.48 -13.53,-78.96 -19.5,-125.01 -5.56,-45.77 -11.14,-95.83 -15.51,-149.9 -11.14,52.06 -32.22,116.71 -64.06,194.52 -7.16,16.02 -12.34,28.04 -15.52,36.05l-231.55 574.98 -310.34 0 -231.57 -574.98c-3.18,-8.01 -7.95,-20.03 -14.32,-36.05 -32.62,-77.81 -53.72,-142.17 -64.05,-193.66 -4.38,46.34 -9.95,92.4 -16.32,137.88 -5.96,45.48 -13.53,90.97 -21.89,136.17l-100.25 530.64 -432.49 0 263.39 -1227.2 460.33 0 257.43 632.76c1.59,4.58 4.77,11.73 9.54,22.03 23.88,56.35 39,104.7 45.36,145.03 3.18,-22.02 8.76,-46.05 17.51,-72.66 8.36,-26.6 20.29,-58.64 35.01,-96.11l259.81 -631.05 461.53 0 262.2 1227.2z"/>
  </g>
 </g>
</svg>
